PathFileType	4	(X/Y/Z)	OpenSim_Sub04_CSBaseline_Magnet.trc
DataRate	CameraRate	NumFrames	NumMarkers	Units	OrigDataRate	OrigDataStartFrame	OrigNumFrames
100	100	30	8	m	100	7073	8083
Frame#	Time	torso_imu_offset_imu	pelvis_imu_offset_imu	tibia_r_imu_offset_imu	femur_r_imu_offset_imu	tibia_l_imu_offset_imu	femur_l_imu_offset_imu	toes_r_imu_offset_imu	toes_l_imu_offset_imu
				X1	Y1	Z1	X2	Y2	Z2	X3	Y3	Z3	X4	Y4	Z4	X5	Y5	Z5	X6	Y6	Z6	X7	Y7	Z7	X8		Y8	Z8	

7073	70.72000000	0.90875839	0.18680677	-0.18258137	-0.63859394	0.18837436	-0.63757914	-0.37349591	-0.69973631	-0.07207296	-0.83041991	-0.12877917	0.09766951	-0.57599736	0.49242734	0.28441851	-0.43798865	0.00635745	0.41263493	-0.74531325	-0.26266127	-0.08408688	-0.67506297	-0.28747887	-0.34091853
7074	70.73000000	0.90990446	0.19244484	-0.18511223	-0.63773396	0.19131057	-0.63768435	-0.40274264	-0.68367291	-0.07907195	-0.82700596	-0.12799743	0.09778464	-0.57216050	0.49514281	0.28500354	-0.43054308	0.01063365	0.41604876	-0.74614888	-0.25517645	-0.12730322	-0.68126149	-0.29634871	-0.34269796
7075	70.74000000	0.90445353	0.19164530	-0.17980503	-0.63699500	0.19361621	-0.63785150	-0.43364625	-0.65139791	-0.09919829	-0.82493692	-0.12587757	0.10229601	-0.57329802	0.49651395	0.28614482	-0.42371444	0.01573361	0.41917968	-0.74164655	-0.24819991	-0.16565074	-0.69053692	-0.29050638	-0.33638246
7076	70.75000000	0.91398042	0.19276374	-0.17768289	-0.62810670	0.19354962	-0.63707966	-0.46966320	-0.62624914	-0.10733128	-0.82693158	-0.13080692	0.09852822	-0.57337095	0.50489237	0.28289630	-0.42367819	0.01558542	0.42827697	-0.72989019	-0.23381760	-0.20721710	-0.68625190	-0.28743521	-0.34323857
7077	70.76000000	0.91226786	0.19372762	-0.18256789	-0.63058871	0.19738052	-0.64375027	-0.50321224	-0.60252516	-0.11720352	-0.82949002	-0.13299085	0.10228801	-0.56402935	0.50813538	0.28672570	-0.42098716	0.02306752	0.43153622	-0.71962619	-0.22438895	-0.24486786	-0.69518727	-0.29259208	-0.34402438
7078	70.77000000	0.91127251	0.19146225	-0.17947445	-0.63054488	0.19784468	-0.64555747	-0.52985863	-0.57222662	-0.13162900	-0.82788909	-0.12753604	0.09752479	-0.56397245	0.51227184	0.28455498	-0.41054835	0.02883026	0.43419704	-0.70663555	-0.21274063	-0.28886343	-0.69915811	-0.28985732	-0.33860038
7079	70.78000000	0.90939862	0.19318723	-0.17666366	-0.62518498	0.20032042	-0.64283095	-0.55801818	-0.53893866	-0.14844352	-0.82896097	-0.13789151	0.09173326	-0.55337959	0.51403170	0.29168862	-0.40617983	0.03095889	0.43115655	-0.70418243	-0.20074018	-0.31969720	-0.70567495	-0.28462489	-0.33830482
7080	70.79000000	0.91107962	0.19163062	-0.17301950	-0.63052027	0.19617516	-0.64274791	-0.58283721	-0.50562398	-0.16169184	-0.82932159	-0.14525080	0.09211336	-0.55615524	0.52426765	0.29535061	-0.40765088	0.03364418	0.44091440	-0.69031006	-0.19681657	-0.35789418	-0.70460716	-0.28537052	-0.33477719
7081	70.80000000	0.91069385	0.19303852	-0.16776474	-0.63050222	0.20042778	-0.64054010	-0.60747349	-0.47342569	-0.17188676	-0.82751645	-0.15681267	0.08808742	-0.55157862	0.52802282	0.29367268	-0.39862156	0.03172424	0.44329545	-0.67377089	-0.18134995	-0.38797042	-0.70891109	-0.29082168	-0.33026577
7082	70.81000000	0.91671627	0.19305703	-0.16945115	-0.62720675	0.18974548	-0.64324619	-0.62578626	-0.44490406	-0.18057470	-0.82148554	-0.16238780	0.09098439	-0.54843381	0.53210464	0.28807929	-0.40185832	0.03439920	0.44303996	-0.65615603	-0.17148562	-0.41412245	-0.71673372	-0.28726610	-0.32425822
7083	70.82000000	0.91630995	0.19712200	-0.16666312	-0.62698135	0.18831423	-0.64898230	-0.64597817	-0.40932639	-0.18401703	-0.81800012	-0.16923300	0.09736168	-0.54326963	0.53551498	0.29370072	-0.39580151	0.04304141	0.44052092	-0.64987569	-0.15809563	-0.44267476	-0.71967739	-0.28841675	-0.31369477
7084	70.83000000	0.91172557	0.19636505	-0.16286429	-0.62560740	0.19366277	-0.64565631	-0.66033049	-0.38400399	-0.19282408	-0.81782528	-0.18019907	0.09355637	-0.53550989	0.54713101	0.29031692	-0.39012790	0.04874126	0.44399047	-0.63165337	-0.14700934	-0.46046324	-0.72078225	-0.28726645	-0.30320410
7085	70.84000000	0.91067691	0.19334296	-0.16683812	-0.62279209	0.19090651	-0.64561982	-0.67399935	-0.36159600	-0.19971369	-0.81464582	-0.18645045	0.09751745	-0.53749649	0.54457991	0.29080900	-0.38759168	0.04999322	0.44716697	-0.61689935	-0.13402098	-0.48091737	-0.73052649	-0.28814265	-0.30132204
7086	70.85000000	0.91352287	0.19530544	-0.16607052	-0.62592636	0.18580848	-0.65349222	-0.68293023	-0.33987966	-0.19938585	-0.80709989	-0.19669366	0.09595593	-0.52825621	0.54899369	0.29256676	-0.38811321	0.06075013	0.44702973	-0.60886843	-0.12897819	-0.49663559	-0.72323291	-0.29305714	-0.28749276
7087	70.86000000	0.90921822	0.19392409	-0.16316146	-0.62929130	0.18624639	-0.64797423	-0.69834773	-0.32302215	-0.19340333	-0.81019163	-0.19983012	0.10384570	-0.52392126	0.55371996	0.28142078	-0.38235271	0.06067965	0.44836538	-0.59822173	-0.11944442	-0.51198218	-0.72678289	-0.29286413	-0.27634532
7088	70.87000000	0.91406467	0.19188006	-0.16343597	-0.62678176	0.17814612	-0.64811936	-0.69969929	-0.30534241	-0.19096193	-0.80761048	-0.20704427	0.10580613	-0.52349460	0.56492634	0.28089243	-0.37920370	0.06166593	0.45457935	-0.59486393	-0.11263265	-0.51744360	-0.72944559	-0.30081806	-0.27107534
7089	70.88000000	0.91761459	0.18921231	-0.15832979	-0.63022780	0.17886666	-0.64941727	-0.70020353	-0.29872580	-0.19080212	-0.80294860	-0.21239565	0.10796758	-0.51324596	0.57839104	0.28077836	-0.37581688	0.06359139	0.46023082	-0.59321949	-0.10422805	-0.52429351	-0.72192597	-0.30453678	-0.25315189
7090	70.89000000	0.91802887	0.19140890	-0.16591789	-0.63133606	0.17578110	-0.64649966	-0.70503635	-0.29846475	-0.19134931	-0.79800484	-0.21457936	0.10721107	-0.50944126	0.57504395	0.28192470	-0.36898049	0.07142522	0.45852446	-0.59429382	-0.10281087	-0.52140530	-0.72536505	-0.30647001	-0.24896111
7091	70.90000000	0.91560189	0.18761227	-0.16422364	-0.62883943	0.17535695	-0.65002442	-0.70541719	-0.30007726	-0.18468375	-0.80137557	-0.21498977	0.12014089	-0.50418443	0.58270116	0.27102385	-0.37027038	0.07741595	0.46001675	-0.59936665	-0.10175694	-0.52161618	-0.72178596	-0.30825675	-0.23651296
7092	70.91000000	0.91964448	0.18880868	-0.16053176	-0.63002380	0.16986814	-0.65325528	-0.70560751	-0.30541870	-0.16961786	-0.80046654	-0.21350998	0.11897167	-0.49752166	0.59524976	0.26837103	-0.36874827	0.07717359	0.46037643	-0.61181704	-0.09805835	-0.50930033	-0.72475705	-0.31473375	-0.21745252
7093	70.92000000	0.91604427	0.18869848	-0.16242302	-0.63256991	0.16706863	-0.65079565	-0.70058668	-0.31756222	-0.17161695	-0.80134691	-0.21051885	0.11623326	-0.49012475	0.59981980	0.26524918	-0.36903559	0.08305164	0.46215388	-0.61901412	-0.09573738	-0.49843995	-0.72400007	-0.31889986	-0.20714719
7094	70.93000000	0.91892164	0.19488400	-0.16322698	-0.63268434	0.16142565	-0.65264084	-0.68886056	-0.34068509	-0.16725529	-0.80397038	-0.21345902	0.12330112	-0.47555039	0.60896466	0.25836375	-0.36324857	0.08588596	0.46096728	-0.62875061	-0.09422831	-0.48054355	-0.72086172	-0.32849722	-0.19714145
7095	70.94000000	0.91829910	0.19216520	-0.16262677	-0.63237401	0.15687455	-0.65065903	-0.68544737	-0.35174411	-0.15511938	-0.80433120	-0.20388828	0.12385752	-0.47877471	0.61053664	0.26596619	-0.36169019	0.09153921	0.45781021	-0.63744818	-0.09177721	-0.47160738	-0.72002844	-0.32345978	-0.18138625
7096	70.95000000	0.91752665	0.19191373	-0.16598148	-0.63218133	0.15098436	-0.65221085	-0.67911037	-0.36100623	-0.14930156	-0.80492949	-0.20534168	0.12721952	-0.46782522	0.62697778	0.26726312	-0.36470744	0.09806451	0.46072601	-0.64856271	-0.09503616	-0.46442430	-0.72622334	-0.32830943	-0.16949588
7097	70.96000000	0.91808483	0.18539944	-0.17150320	-0.63384654	0.14586138	-0.65000287	-0.67957475	-0.37075084	-0.14321308	-0.79935724	-0.20814026	0.13441972	-0.45200759	0.63159079	0.26388184	-0.36279471	0.10489983	0.45091442	-0.66405945	-0.10100258	-0.43850232	-0.72873836	-0.32607119	-0.15643617
7098	70.97000000	0.91628195	0.19190740	-0.16609400	-0.63576653	0.14474054	-0.65371039	-0.67932322	-0.37330364	-0.13677057	-0.79578253	-0.21388565	0.13777722	-0.44765603	0.64087762	0.26574975	-0.36655526	0.10891943	0.44528240	-0.66864965	-0.10958550	-0.42288879	-0.73422904	-0.32672176	-0.14370776
7099	70.98000000	0.91310867	0.19090774	-0.16943698	-0.63812424	0.13336720	-0.65426640	-0.68583543	-0.37856251	-0.14169192	-0.79464866	-0.21608722	0.14131840	-0.43553110	0.64793213	0.26135153	-0.36781193	0.11744007	0.43680133	-0.68160268	-0.11274954	-0.40980645	-0.72566084	-0.32768758	-0.12250749
7100	70.99000000	0.91944994	0.18347067	-0.17955095	-0.63624495	0.12646947	-0.65546131	-0.67764563	-0.38662583	-0.12890362	-0.78780117	-0.22646893	0.15083178	-0.42697376	0.66077143	0.26018008	-0.36892499	0.12081200	0.43145920	-0.69049343	-0.11700179	-0.39287024	-0.73440666	-0.32586788	-0.10291346
7101	71	0.91662019	0.18435115	-0.17655350	-0.63549348	0.12918204	-0.65889837	-0.67122041	-0.39668145	-0.11682916	-0.78892405	-0.23695687	0.15453059	-0.40835407	0.66576559	0.25531239	-0.37548050	0.12418504	0.42540915	-0.68994920	-0.11574254	-0.37804656	-0.73449007	-0.32380458	-0.08792684
7102	71.01000000	0.91713209	0.18690897	-0.17759209	-0.63725261	0.12010469	-0.65428913	-0.66713777	-0.40762433	-0.11426833	-0.78230164	-0.23575508	0.15881867	-0.39553851	0.67873955	0.25694491	-0.37899068	0.12907290	0.41805589	-0.69907991	-0.11844647	-0.36358693	-0.73944803	-0.32317335	-0.06602269
